<svg width="44" height="44" viewBox="0 0 44 44" fill="none" xmlns="http://www.w3.org/2000/svg">
<path d="M5.50016 34.8333H1.8335V32.9999C1.8335 29.5829 4.17058 26.7117 7.3335 25.8976M11.0002 19.8537C8.86398 19.0986 7.3335 17.0614 7.3335 14.6666C7.3335 12.2719 8.86398 10.2346 11.0002 9.4796M38.5002 34.8333H42.1668V32.9999C42.1668 29.5829 39.8297 26.7117 36.6668 25.8976M33.0002 9.4796C35.1364 10.2346 36.6668 12.2719 36.6668 14.6666C36.6668 17.0614 35.1364 19.0986 33.0002 19.8537M18.3335 25.6666H25.6668C29.7169 25.6666 33.0002 28.9499 33.0002 33V34.8333H11.0002V33C11.0002 28.9499 14.2834 25.6666 18.3335 25.6666ZM27.5002 14.6666C27.5002 17.7042 25.0377 20.1666 22.0002 20.1666C18.9626 20.1666 16.5002 17.7042 16.5002 14.6666C16.5002 11.6291 18.9626 9.16663 22.0002 9.16663C25.0377 9.16663 27.5002 11.6291 27.5002 14.6666Z" stroke="#172F53" stroke-width="3" stroke-linecap="round" stroke-linejoin="round"/>
</svg>
