<svg width="25" height="25" viewBox="0 0 25 25" fill="none" xmlns="http://www.w3.org/2000/svg">
<path d="M20.9995 19.2872V16.728C21.0099 16.3096 20.8658 15.902 20.5948 15.5827C19.8303 14.6823 17.2085 14.1063 16.1693 14.3275C15.3591 14.4999 14.7924 15.3133 14.2383 15.8664C12.0983 14.652 10.3265 12.8836 9.10964 10.7479C9.66376 10.1949 10.4788 9.62923 10.6516 8.82071C10.8729 7.78512 10.2977 5.18008 9.40348 4.41257C9.08895 4.14261 8.68679 3.99601 8.27197 4.00008H5.70766C4.7306 4.001 3.91772 4.87734 4.00667 5.85979C4 14.3275 10.6111 21 19.1361 20.9933C20.1238 21.0824 21.0035 20.2655 20.9995 19.2872Z" stroke="#172F53" stroke-width="1.5" stroke-linecap="round" stroke-linejoin="round"/>
</svg>
