<svg width="35" height="35" viewBox="0 0 35 35" fill="none" xmlns="http://www.w3.org/2000/svg">
<path d="M12.6647 15.5426L22.3307 10.7096M22.3353 24.2927L12.6785 19.4643M30.625 8.75C30.625 11.1662 28.6662 13.125 26.25 13.125C23.8338 13.125 21.875 11.1662 21.875 8.75C21.875 6.33375 23.8338 4.375 26.25 4.375C28.6662 4.375 30.625 6.33375 30.625 8.75ZM13.125 17.5C13.125 19.9162 11.1662 21.875 8.75 21.875C6.33375 21.875 4.375 19.9162 4.375 17.5C4.375 15.0838 6.33375 13.125 8.75 13.125C11.1662 13.125 13.125 15.0838 13.125 17.5ZM30.625 26.25C30.625 28.6662 28.6662 30.625 26.25 30.625C23.8338 30.625 21.875 28.6662 21.875 26.25C21.875 23.8338 23.8338 21.875 26.25 21.875C28.6662 21.875 30.625 23.8338 30.625 26.25Z" stroke="#76F016" stroke-width="3"/>
</svg>
